<svg width="127" height="116" viewBox="0 0 127 116" fill="none" xmlns="http://www.w3.org/2000/svg">
<path d="M93.535 115.648C79.9792 114.801 71.4221 107.091 67.8637 92.5183C67.0164 94.8906 65.915 97.1781 64.5595 99.3809C57.7816 110.226 47.1911 115.648 32.7881 115.648C28.0435 115.648 23.7226 115.055 19.8253 113.869C6.60845 109.632 0 99.974 0 84.8932C0.169447 62.6955 22.0282 51.1731 65.5761 50.3259V33.8048C65.5761 28.8908 65.2372 24.6546 64.5595 21.0962C62.865 11.4377 58.0357 6.60845 50.0717 6.60845C47.6994 6.60845 45.5813 7.03207 43.7174 7.8793C40.8368 9.57378 38.4646 13.81 36.6006 20.5879C35.9228 22.9601 35.4145 24.6546 35.0756 25.6713C32.5339 32.7881 27.6199 36.3465 20.3337 36.3465C18.6392 36.3465 17.0295 36.0923 15.5044 35.584C9.23488 33.8895 6.10011 29.738 6.10011 23.1296C6.10011 20.249 6.86262 17.5378 8.38765 14.9961C14.3183 4.9987 28.8061 0 51.8509 0C57.7816 0 63.2886 0.593066 68.372 1.7792C88.0279 6.69317 97.8559 19.7406 97.8559 40.9216V94.0433C97.8559 102.177 99.7198 106.413 103.448 106.752C108.362 106.582 111.327 100.652 112.344 88.9599L118.952 89.2141C118.444 94.4669 117.681 98.7878 116.665 102.177C113.614 111.158 105.905 115.648 93.535 115.648ZM46.005 104.719C47.1911 104.719 48.5467 104.464 50.0717 103.956C57.1885 101.245 62.3566 93.9586 65.5761 82.0973V57.4427C57.951 57.7816 51.6815 58.7135 46.7675 60.2386C37.6173 63.6275 33.0422 70.9137 33.0422 82.0973C33.2117 96.8392 37.5326 104.38 46.005 104.719Z" fill="white"/>
<path d="M116.68 82.5319C103.631 68.0096 116.663 57.7598 120.231 68.378C127.292 64.8388 132.075 74.0016 116.68 82.5319Z" fill="white"/>
</svg>
